<?xml version="1.0" encoding="utf-8"?>
<!DOCTYPE svg
  PUBLIC '-//W3C//DTD SVG 1.0//EN'
  'http://www.w3.org/TR/2001/REC-SVG-20010904/DTD/svg10.dtd'>
<svg width="860" height="390" preserveAspectRatio="xMinYMin meet" viewBox="0 0 860 390" xmlns="http://www.w3.org/2000/svg" version="1.0" fill-rule="evenodd" xmlns:xlink="http://www.w3.org/1999/xlink">
	<title>...</title>
	<desc>...</desc>
	<clipPath id="clip">
		<rect x="0" y="0" width="860" height="390"/>
	</clipPath>
	<g id="group" transform="scale(1,-1) translate(0,-390)" style="clip-path: url(#clip)">
		<g transform="">
			<text x="36.39" y="360" style="font-family: Times-Roman; font-size: 10px;fill: rgb(5%,9%,16%); stroke:none;" transform="translate(0,720) scale(1,-1)">Application</text>
			<path d="M 60,40 L 60,340 Z" style="stroke: rgb(79%,83%,88%); stroke-linecap: butt; stroke-width: 1; stroke-dasharray: 4, 3;"/>
			<text x="158.475" y="360" style="font-family: Times-Roman; font-size: 10px;fill: rgb(5%,9%,16%); stroke:none;" transform="translate(0,720) scale(1,-1)">Ingest API</text>
			<path d="M 180,40 L 180,340 Z" style="stroke: rgb(79%,83%,88%); stroke-linecap: butt; stroke-width: 1; stroke-dasharray: 4, 3;"/>
			<text x="285.975" y="360" style="font-family: Times-Roman; font-size: 10px;fill: rgb(5%,9%,16%); stroke:none;" transform="translate(0,720) scale(1,-1)">Anomaly Engine</text>
			<path d="M 320,40 L 320,340 Z" style="stroke: rgb(79%,83%,88%); stroke-linecap: butt; stroke-width: 1; stroke-dasharray: 4, 3;"/>
			<text x="443.62" y="360" style="font-family: Times-Roman; font-size: 10px;fill: rgb(5%,9%,16%); stroke:none;" transform="translate(0,720) scale(1,-1)">Elasticsearch</text>
			<path d="M 470,40 L 470,340 Z" style="stroke: rgb(79%,83%,88%); stroke-linecap: butt; stroke-width: 1; stroke-dasharray: 4, 3;"/>
			<text x="598.61" y="360" style="font-family: Times-Roman; font-size: 10px;fill: rgb(5%,9%,16%); stroke:none;" transform="translate(0,720) scale(1,-1)">Redis</text>
			<path d="M 610,40 L 610,340 Z" style="stroke: rgb(79%,83%,88%); stroke-linecap: butt; stroke-width: 1; stroke-dasharray: 4, 3;"/>
			<text x="706.95" y="360" style="font-family: Times-Roman; font-size: 10px;fill: rgb(5%,9%,16%); stroke:none;" transform="translate(0,720) scale(1,-1)">WebSocket</text>
			<path d="M 730,40 L 730,340 Z" style="stroke: rgb(79%,83%,88%); stroke-linecap: butt; stroke-width: 1; stroke-dasharray: 4, 3;"/>
			<text x="801.945" y="360" style="font-family: Times-Roman; font-size: 10px;fill: rgb(5%,9%,16%); stroke:none;" transform="translate(0,720) scale(1,-1)">Frontend</text>
			<path d="M 820,40 L 820,340 Z" style="stroke: rgb(79%,83%,88%); stroke-linecap: butt; stroke-width: 1; stroke-dasharray: 4, 3;"/>
			<path d="M 60,320 L 180,320 Z" style="stroke: rgb(27%,33%,41%); stroke-linecap: butt; stroke-width: 1.2;"/>
			<polygon points="180 320, 174 323, 174 317" style="stroke: rgb(27%,33%,41%); stroke-linecap: butt; stroke-width: 1; fill: rgb(27%,33%,41%); fill-rule: evenodd;"/>
			<text x="96.1425" y="326.0" style="font-family: Times-Roman; font-size: 7.5px;fill: rgb(27%,33%,41%); stroke:none;" transform="translate(0,652) scale(1,-1)">1. POST /ingest</text>
			<path d="M 180,290 L 320,290 Z" style="stroke: rgb(27%,33%,41%); stroke-linecap: butt; stroke-width: 1.2;"/>
			<polygon points="320 290, 314 293, 314 287" style="stroke: rgb(27%,33%,41%); stroke-linecap: butt; stroke-width: 1; fill: rgb(27%,33%,41%); fill-rule: evenodd;"/>
			<text x="231.0475" y="296.0" style="font-family: Times-Roman; font-size: 7.5px;fill: rgb(27%,33%,41%); stroke:none;" transform="translate(0,592) scale(1,-1)">2. score(log)</text>
			<path d="M 320,260 L 470,260 Z" style="stroke: rgb(27%,33%,41%); stroke-linecap: butt; stroke-width: 1.2;"/>
			<polygon points="470 260, 464 263, 464 257" style="stroke: rgb(27%,33%,41%); stroke-linecap: butt; stroke-width: 1; fill: rgb(27%,33%,41%); fill-rule: evenodd;"/>
			<text x="365.42" y="266.0" style="font-family: Times-Roman; font-size: 7.5px;fill: rgb(27%,33%,41%); stroke:none;" transform="translate(0,532) scale(1,-1)">3. store indexed log</text>
			<path d="M 320,220 L 610,220 Z" style="stroke: rgb(27%,33%,41%); stroke-linecap: butt; stroke-width: 1.2;"/>
			<polygon points="610 220, 604 223, 604 217" style="stroke: rgb(27%,33%,41%); stroke-linecap: butt; stroke-width: 1; fill: rgb(27%,33%,41%); fill-rule: evenodd;"/>
			<text x="434.58375" y="226.0" style="font-family: Times-Roman; font-size: 7.5px;fill: rgb(27%,33%,41%); stroke:none;" transform="translate(0,452) scale(1,-1)">4. publish live event</text>
			<path d="M 610,180 L 730,180 Z" style="stroke: rgb(27%,33%,41%); stroke-linecap: butt; stroke-width: 1.2;"/>
			<polygon points="730 180, 724 183, 724 177" style="stroke: rgb(27%,33%,41%); stroke-linecap: butt; stroke-width: 1; fill: rgb(27%,33%,41%); fill-rule: evenodd;"/>
			<text x="639.06625" y="186.0" style="font-family: Times-Roman; font-size: 7.5px;fill: rgb(27%,33%,41%); stroke:none;" transform="translate(0,372) scale(1,-1)">5. broadcast pub/sub</text>
			<path d="M 730,140 L 820,140 Z" style="stroke: rgb(27%,33%,41%); stroke-linecap: butt; stroke-width: 1.2;"/>
			<polygon points="820 140, 814 143, 814 137" style="stroke: rgb(27%,33%,41%); stroke-linecap: butt; stroke-width: 1; fill: rgb(27%,33%,41%); fill-rule: evenodd;"/>
			<text x="732.29875" y="146.0" style="font-family: Times-Roman; font-size: 7.5px;fill: rgb(27%,33%,41%); stroke:none;" transform="translate(0,292) scale(1,-1)">6. push WebSocket message</text>
			<path d="M 320,100 L 610,100 Z" style="stroke: rgb(27%,33%,41%); stroke-linecap: butt; stroke-width: 1.2;"/>
			<polygon points="610 100, 604 103, 604 97" style="stroke: rgb(27%,33%,41%); stroke-linecap: butt; stroke-width: 1; fill: rgb(27%,33%,41%); fill-rule: evenodd;"/>
			<text x="427.92" y="106.0" style="font-family: Times-Roman; font-size: 7.5px;fill: rgb(27%,33%,41%); stroke:none;" transform="translate(0,212) scale(1,-1)">7. optional alert dispatch</text>
		</g>
	</g>
</svg>
